<svg width="255" height="70" viewBox="0 0 255 70" fill="none" xmlns="http://www.w3.org/2000/svg">
<rect width="234.466" height="70" fill="#06929B"/>
<rect width="10.7116" height="70" fill="#A5871D"/>
<rect x="223.754" width="10.7116" height="70" fill="#A5871D"/>
<path d="M75.9233 53.2985H70.4783V34.2685H57.6083V53.2985H52.1633V15.2935H57.6083V33.6085L61.6233 29.5385H70.4783V15.2935H75.9233V53.2985ZM105.232 48.5135L100.502 53.2985H90.3268L85.5968 48.5135V29.5385L90.3268 24.7535H100.502L105.232 29.5385V48.5135ZM99.8418 48.5135V29.5385H91.0418V48.5135H99.8418ZM146.798 53.2985H141.353V29.5385H133.213V53.2985H127.768V29.5385H119.683V53.2985H114.238V24.7535H119.683V28.8785L123.698 24.7535H129.143L132.498 28.2185L135.908 24.7535H142.013L146.798 29.5385V53.2985ZM175.056 53.2985H160.151L155.421 48.5135V29.5385L160.151 24.7535H170.326L175.056 29.5385V39.0535L170.326 43.7835H161.526L166.366 39.0535H169.666V29.5385H160.866V48.5135H175.056V53.2985Z" fill="black"/>
</svg>
