<svg width="104" height="101" viewBox="0 0 104 101" fill="none" xmlns="http://www.w3.org/2000/svg">
<path d="M52 0L88.7696 14.7911L104 50.5L88.7696 86.2089L52 101L15.2304 86.2089L0 50.5L15.2304 14.7911L52 0Z" fill="#740F57"/>
<path d="M95 51C95 74.7482 75.7482 94 52 94C28.2518 94 9 74.7482 9 51C9 27.2518 28.2518 8 52 8C75.7482 8 95 27.2518 95 51Z" fill="#06929B"/>
<path d="M52 43.8841C47.6 43.8841 44 42.3961 41.2 39.4203C38.4 36.4444 37 32.6184 37 27.942C37 23.2657 38.4 19.4396 41.2 16.4638C44 13.4879 47.6 12 52 12C56.4 12 60 13.4879 62.8 16.4638C65.6 19.4396 67 23.2657 67 27.942C67 32.6184 65.6 36.4444 62.8 39.4203C60 42.3961 56.4 43.8841 52 43.8841ZM20 78V68.0097C20 65.3172 20.6333 63.0145 21.9 61.1014C23.1667 59.1884 24.8 57.7359 26.8 56.744C31.2667 54.6184 35.55 53.0242 39.65 51.9614C43.75 50.8986 47.8667 50.3671 52 50.3671C56.1333 50.3671 60.2333 50.9163 64.3 52.0145C68.3667 53.1127 72.6333 54.6892 77.1 56.744C79.1667 57.7359 80.8333 59.1884 82.1 61.1014C83.3667 63.0145 84 65.3172 84 68.0097V78H20ZM26 71.6232H78V68.0097C78 66.876 77.6833 65.7955 77.05 64.7681C76.4167 63.7407 75.6333 62.9791 74.7 62.4831C70.4333 60.2866 66.5333 58.781 63 57.9662C59.4667 57.1514 55.8 56.744 52 56.744C48.2 56.744 44.5 57.1514 40.9 57.9662C37.3 58.781 33.4 60.2866 29.2 62.4831C28.2667 62.9791 27.5 63.7407 26.9 64.7681C26.3 65.7955 26 66.876 26 68.0097V71.6232ZM52 37.5072C54.6 37.5072 56.75 36.6039 58.45 34.7971C60.15 32.9903 61 30.7053 61 27.942C61 25.1787 60.15 22.8937 58.45 21.087C56.75 19.2802 54.6 18.3768 52 18.3768C49.4 18.3768 47.25 19.2802 45.55 21.087C43.85 22.8937 43 25.1787 43 27.942C43 30.7053 43.85 32.9903 45.55 34.7971C47.25 36.6039 49.4 37.5072 52 37.5072Z" fill="black"/>
</svg>
